<svg width="48" height="48" viewBox="0 0 48 48" fill="none" xmlns="http://www.w3.org/2000/svg">
<g clip-path="url(#clip0_335_2441)">
<path d="M43.2039 9.99831L26.7954 0.733258C25.9456 0.252887 24.9815 -3.05176e-05 24 -3.05176e-05C23.0185 -3.05176e-05 22.0543 0.252887 21.2045 0.733258L4.79485 9.99831C3.94561 10.4789 3.24053 11.1695 2.75036 12.0007C2.26019 12.832 2.00218 13.7748 2.0022 14.7344V33.2667C2.00226 34.2264 2.26056 35.1692 2.75116 36.0004C3.24176 36.8315 3.94737 37.5217 4.79709 38.0017L21.2045 47.2678C22.0545 47.7477 23.0186 48.0003 24 48.0003C24.9814 48.0003 25.9455 47.7477 26.7954 47.2678L43.2039 38.0017C44.054 37.522 44.7599 36.8318 45.2507 36.0006C45.7415 35.1695 45.9999 34.2265 46 33.2667V14.7344C45.9998 13.7744 45.7413 12.8314 45.2505 12.0001C44.7597 11.1688 44.0539 10.4784 43.2039 9.99831Z" fill="#001A72"/>
<path d="M31.3722 11.2182C29.104 9.91853 26.4082 9.53152 23.8539 10.1389C21.2995 10.7462 19.0862 12.3005 17.6812 14.4736C17.2397 15.1312 11.725 24.4225 11.725 24.4225C11.666 24.5148 11.6265 24.6178 11.6088 24.7253C11.5912 24.8328 11.5958 24.9426 11.6223 25.0484C11.6488 25.1541 11.6967 25.2535 11.7632 25.3408C11.8297 25.4281 11.9134 25.5015 12.0094 25.5566C12.1054 25.6117 12.2117 25.6475 12.3221 25.6617C12.4324 25.6759 12.5446 25.6684 12.6519 25.6395C12.7592 25.6106 12.8595 25.561 12.9469 25.4935C13.0342 25.4261 13.1069 25.3422 13.1605 25.2468L17.2991 18.3164C17.6117 18.6452 18.0376 18.8808 18.5408 19.0716L10.2692 32.7472C10.2102 32.8395 10.1707 32.9424 10.1531 33.0499C10.1355 33.1574 10.14 33.2672 10.1666 33.373C10.1931 33.4787 10.241 33.5782 10.3075 33.6655C10.374 33.7528 10.4577 33.8261 10.5537 33.8813C10.6497 33.9364 10.756 33.9721 10.8663 33.9863C10.9767 34.0006 11.0888 33.993 11.1962 33.9641C11.3035 33.9352 11.4038 33.8856 11.4911 33.8182C11.5785 33.7507 11.6512 33.6668 11.7048 33.5714L20.1948 19.5286C20.3764 19.5703 20.5624 19.6108 20.7552 19.6514C21.0443 19.7135 21.3398 19.7792 21.6416 19.8487L15.5621 29.961C15.4503 30.147 15.4187 30.3689 15.4742 30.5777C15.5297 30.7865 15.6677 30.9653 15.8579 31.0746C16.0481 31.1839 16.275 31.2148 16.4885 31.1605C16.702 31.1063 16.8847 30.9713 16.9965 30.7852L23.2945 20.2959C23.7613 20.4434 24.2179 20.6198 24.6617 20.8242L20.4033 27.8313C20.294 28.0174 20.2643 28.2381 20.3205 28.4455C20.3766 28.6529 20.5143 28.8302 20.7034 28.9389C20.8925 29.0477 21.1178 29.079 21.3304 29.0262C21.5431 28.9733 21.7257 28.8405 21.8388 28.6566L26.0973 21.6528C26.4844 21.9285 26.8541 22.2269 27.2045 22.5461L20.7462 33.281C20.6347 33.4673 20.6033 33.6894 20.659 33.8984C20.7147 34.1073 20.8528 34.2862 21.0432 34.3956C21.169 34.4676 21.3121 34.5054 21.4578 34.5053C21.6039 34.5066 21.7477 34.4702 21.8748 34.3998C22.002 34.3293 22.1078 34.2273 22.1817 34.1041L28.4114 23.7474C28.6154 23.9666 28.8126 24.1858 29.0054 24.393C29.1488 24.5508 29.29 24.7064 29.4301 24.8577L20.9546 38.8829C20.8993 38.9751 20.863 39.0769 20.8479 39.1828C20.8328 39.2886 20.8391 39.3963 20.8666 39.4997C20.8941 39.6031 20.9421 39.7002 21.008 39.7855C21.0739 39.8707 21.1563 39.9425 21.2505 39.9965C21.3763 40.0684 21.5194 40.1062 21.6651 40.1062C21.8113 40.1073 21.9552 40.0707 22.0823 40C22.2094 39.9294 22.3152 39.8273 22.3891 39.7039L30.6538 26.0371C31.0101 26.3425 31.4311 26.5671 31.8866 26.6947L27.6965 33.7095C27.5872 33.8956 27.5574 34.1163 27.6136 34.3237C27.6698 34.5311 27.8074 34.7084 27.9965 34.8171C28.1857 34.9259 28.411 34.9572 28.6236 34.9044C28.8362 34.8515 29.0189 34.7187 29.132 34.5349C29.132 34.5349 34.2635 25.9494 34.9717 24.7689C36.3268 22.504 36.7089 19.8061 36.0342 17.2662C35.3596 14.7264 33.6831 12.5516 31.3722 11.2182ZM33.6729 23.7134L33.665 23.7254L33.3804 24.1935C32.9792 24.8412 32.7001 25.0484 32.4211 25.0572C31.946 25.0736 31.0416 24.1803 30.2504 23.3122C29.2205 22.1811 27.9385 20.7726 26.2217 19.7873C24.5048 18.8019 22.6244 18.3909 21.1126 18.0621C19.9505 17.8089 18.7066 17.5206 18.4836 17.1118C18.329 16.829 18.4444 16.3873 18.9487 15.5598C20.0683 13.6792 21.9003 12.3059 24.048 11.7372C26.1956 11.1686 28.4858 11.4504 30.4224 12.5217C32.3591 13.593 33.7862 15.3674 34.3946 17.4606C35.003 19.5538 34.7437 21.7971 33.6729 23.7046V23.7134ZM29.1443 15.9313C28.8769 15.9921 28.5971 15.974 28.3402 15.8793C28.0833 15.7845 27.8609 15.6174 27.7011 15.3991C27.5413 15.1808 27.4512 14.9211 27.4423 14.6527C27.4334 14.3843 27.506 14.1194 27.651 13.8914C27.796 13.6634 28.0068 13.4825 28.2568 13.3716C28.5069 13.2608 28.7849 13.2249 29.0558 13.2686C29.3267 13.3122 29.5782 13.4335 29.7787 13.6169C29.9792 13.8004 30.1195 14.0378 30.182 14.2993C30.2236 14.4731 30.2297 14.6532 30.2001 14.8293C30.1704 15.0055 30.1055 15.1741 30.0091 15.3257C29.9127 15.4773 29.7868 15.6088 29.6384 15.7127C29.49 15.8166 29.3221 15.8909 29.1443 15.9313ZM25.2658 16.2919C25.0533 16.3406 24.8309 16.3265 24.6267 16.2515C24.4224 16.1765 24.2455 16.044 24.1183 15.8706C23.9911 15.6972 23.9194 15.4908 23.9122 15.2776C23.9049 15.0643 23.9625 14.8537 24.0777 14.6725C24.1929 14.4913 24.3604 14.3475 24.5591 14.2595C24.7578 14.1714 24.9788 14.1429 25.1941 14.1777C25.4093 14.2125 25.6092 14.309 25.7684 14.4549C25.9275 14.6008 26.0389 14.7896 26.0883 14.9975C26.1542 15.2756 26.1046 15.568 25.9504 15.8104C25.7962 16.0529 25.55 16.2257 25.2658 16.2908V16.2919ZM32.55 20.8702C32.3313 20.92 32.1024 20.9052 31.8923 20.8278C31.6822 20.7504 31.5003 20.6137 31.3695 20.4352C31.2388 20.2566 31.1652 20.0441 31.158 19.8246C31.1507 19.6051 31.2102 19.3884 31.3289 19.202C31.4475 19.0156 31.6201 18.8677 31.8246 18.7772C32.0292 18.6867 32.2566 18.6575 32.4781 18.6934C32.6997 18.7293 32.9053 18.8287 33.0691 18.9789C33.2329 19.1291 33.3475 19.3235 33.3983 19.5374C33.4665 19.8239 33.4155 20.1251 33.2567 20.3748C33.0978 20.6246 32.844 20.8024 32.5511 20.8691L32.55 20.8702ZM32.2071 18.2462C32.0367 18.2851 31.8584 18.2738 31.6947 18.2136C31.531 18.1533 31.3892 18.047 31.2873 17.9079C31.1854 17.7689 31.1279 17.6034 31.1222 17.4324C31.1165 17.2614 31.1627 17.0926 31.2551 16.9474C31.3475 16.8021 31.4818 16.6869 31.6412 16.6163C31.8005 16.5457 31.9777 16.523 32.1502 16.5509C32.3228 16.5788 32.483 16.6562 32.6106 16.7732C32.7383 16.8902 32.8275 17.0416 32.8671 17.2082C32.9202 17.4312 32.8806 17.6656 32.7571 17.8601C32.6335 18.0545 32.4361 18.193 32.2082 18.2451L32.2071 18.2462ZM30.2134 19.1099C30.0867 19.1389 29.9541 19.1305 29.8323 19.0857C29.7105 19.0409 29.605 18.9618 29.5292 18.8584C29.4533 18.755 29.4105 18.632 29.4062 18.5048C29.4019 18.3776 29.4362 18.252 29.5049 18.1439C29.5736 18.0358 29.6735 17.95 29.792 17.8975C29.9105 17.8449 30.0422 17.8279 30.1706 17.8486C30.299 17.8693 30.4182 17.9267 30.5132 18.0137C30.6082 18.1007 30.6747 18.2133 30.7043 18.3372C30.7439 18.5033 30.7145 18.678 30.6224 18.823C30.5304 18.9679 30.3833 19.0711 30.2134 19.1099ZM22.9012 14.7914C22.7745 14.8204 22.6419 14.812 22.5202 14.7671C22.3984 14.7223 22.293 14.6431 22.2174 14.5396C22.1417 14.4361 22.0992 14.313 22.0952 14.1858C22.0912 14.0587 22.1259 13.9332 22.1949 13.8253C22.2639 13.7175 22.3641 13.6321 22.4827 13.58C22.6014 13.5279 22.7333 13.5115 22.8615 13.5328C22.9898 13.5541 23.1086 13.6122 23.2031 13.6996C23.2975 13.7871 23.3633 13.9001 23.392 14.0242C23.4303 14.1895 23.4002 14.363 23.3083 14.5067C23.2163 14.6504 23.07 14.7528 22.9012 14.7914Z" fill="white"/>
</g>
<defs>
<clipPath id="clip0_335_2441">
<rect width="44" height="48" fill="white" transform="translate(2)"/>
</clipPath>
</defs>
</svg>
